:SAMPLES-PER-SECOND 30
:FRAME-RANGE 1-2009
:FULLY-SPECIFIED
:DEGREES
817
root  35.2995 38.6609 -37.3316 -23.6974 81.9828 -25.3221
RightUpLeg  -21.8834 4.56482 4.83343
RightLeg  8.61951 3.77625 0.209956
RightFoot  4.69781 -0.80178 5.91397
RightToes  2.96424e-010 1.2921e-014 -6.02303e-014
Spine  -5.99134 -6.58584 -2.3358
Spine1  10.275 -8.52866 5.84069
HEad  22.2425 -0.383155 -3.99856
LeftShoulder1  1.45759 -1.93331 -21.7233
LeftArm  -1.03527 -2.34888 -46.896
LeftForeArm  29.0172 -1.32078 -12.6544
LeftHand  -0.0677652 4.25901 5.04401
RightShoulder  0.301961 -2.39399 26.3819
RightArm  -42.5358 -17.9175 31.0329
RightForeArm  1.1841 9.27861 -3.02474
RightHand  -0.140494 -4.45357 -15.9311
LeftUpLeg  11.2703 -3.4718 -2.79901
LeftLeg  18.9623 -0.0250919 0.343651
LeftFoot  -19.7403 0.0614861 -0.775328
LeftToes  -1.2485e-010 1.20979e-011 -1.0929e-011
818
root  36.7656 38.6838 -37.2151 -32.6501 81.89 -34.4933
RightUpLeg  -22.0264 3.84016 6.02386
RightLeg  12.6791 3.02983 0.798447
RightFoot  5.1813 -0.677812 4.90954
RightToes  2.96424e-010 1.2921e-014 -6.02303e-014
Spine  -6.5782 -6.9054 -0.310563
Spine1  10.3959 -8.91487 6.15367
HEad  23.4153 -0.252748 -4.79039
LeftShoulder1  1.52579 -2.13508 -21.9601
LeftArm  -1.51887 -2.98547 -47.7058
LeftForeArm  29.1863 -1.12147 -12.5176
LeftHand  -0.0811519 3.97462 5.25432
RightShoulder  0.32093 -2.31422 25.6428
RightArm  -47.7228 -11.7077 29.5165
RightForeArm  1.47982 11.5098 -4.14381
RightHand  -0.339422 -3.03041 -16.295
LeftUpLeg  9.2132 -1.7616 -0.31815
LeftLeg  26.5343 -3.40652 -1.51003
LeftFoot  -16.218 -0.0898816 -4.3911
LeftToes  -1.2485e-010 1.20979e-011 -1.0929e-011
819
root  38.1277 38.7286 -37.0445 -41.0908 81.4194 -43.1189
RightUpLeg  -21.2923 3.64102 7.64986
RightLeg  15.5016 2.83824 1.01987
RightFoot  3.09335 -0.266481 2.27039
RightToes  2.96424e-010 1.2921e-014 -6.02303e-014
Spine  -6.20942 -6.98209 1.59072
Spine1  9.46279 -8.95851 6.74217
HEad  24.8145 -0.952791 -5.22024
LeftShoulder1  1.55298 -2.25138 -21.8571
LeftArm  -2.18632 -3.1303 -48.9994
LeftForeArm  29.7913 -0.724059 -12.3331
LeftHand  -0.0780913 3.98623 5.0238
RightShoulder  0.378952 -2.1002 24.7886
RightArm  -55.0331 -5.77893 27.697
RightForeArm  2.26968 13.2234 -5.11778
RightHand  -0.376402 -2.70555 -15.9591
LeftUpLeg  4.83935 1.03096 3.56719
LeftLeg  37.1724 -7.69445 -5.86209
LeftFoot  -8.69517 0.287782 -10.1891
LeftToes  -1.2485e-010 1.20979e-011 -1.0929e-011
820
root  39.4044 38.7653 -36.8877 -45.0231 80.7759 -47.0471
RightUpLeg  -20.0271 3.03513 8.87156
RightLeg  17.4357 3.25706 1.45649
RightFoot  0.741776 -0.0100117 0.142328
RightToes  2.96424e-010 1.2921e-014 -6.02303e-014
Spine  -5.78131 -6.7086 3.38159
Spine1  9.10003 -8.5374 6.87257
HEad  25.2451 -2.19505 -5.33194
LeftShoulder1  1.57114 -2.4121 -21.3594
LeftArm  -2.55383 -3.48221 -50.4034
LeftForeArm  30.3719 -0.596379 -12.1909
LeftHand  -0.0733811 3.92072 4.41124
RightShoulder  0.460458 -1.78274 23.6494
RightArm  -65.3007 -0.51268 25.9525
RightForeArm  6.81501 15.2504 -5.25537
RightHand  -0.40869 -2.61158 -16.7822
LeftUpLeg  -0.747695 2.15052 6.40886
LeftLeg  48.1846 -8.51115 -9.65319
LeftFoot  0.858351 1.9118 -17.8163
LeftToes  -1.2485e-010 1.20979e-011 -1.0929e-011
821
root  40.6251 38.751 -36.7489 -48.4883 80.4318 -50.2168
RightUpLeg  -18.4418 1.61737 9.63166
RightLeg  19.2648 4.11864 2.25176
RightFoot  -2.2556 0.0245355 -0.501611
RightToes  2.96424e-010 1.2921e-014 -6.02303e-014
Spine  -5.11732 -6.44216 5.23228
Spine1  8.87923 -7.941 6.44496
HEad  25.4685 -3.85953 -4.41354
LeftShoulder1  1.60403 -2.51393 -21.4498
LeftArm  -2.03489 -4.26777 -50.9
LeftForeArm  30.7129 -0.536317 -12.3462
LeftHand  -0.0759942 3.7759 4.24413
RightShoulder  0.558531 -1.39958 22.7698
RightArm  -77.5539 3.71438 23.6253
RightForeArm  13.7449 17.5296 -4.15739
RightHand  -0.388043 -2.60995 -15.9052
LeftUpLeg  -6.35818 2.33141 8.4977
LeftLeg  56.7655 -7.78171 -12.0973
LeftFoot  13.764 4.99502 -22.5617
LeftToes  -1.2485e-010 1.20979e-011 -1.0929e-011
822
root  41.8851 38.8206 -36.5898 -47.6744 80.4979 -49.0426
RightUpLeg  -16.3187 0.914752 9.62839
RightLeg  20.3125 4.91655 2.60234
RightFoot  -4.85011 0.0476912 -1.42048
RightToes  2.96424e-010 1.2921e-014 -6.02303e-014
Spine  -4.54256 -5.98878 6.26002
Spine1  8.4556 -7.08243 5.69462
HEad  25.0988 -5.9801 -3.88518
LeftShoulder1  1.59138 -2.48872 -21.3449
LeftArm  -2.03482 -4.6241 -51.4609
LeftForeArm  31.8914 -0.362868 -12.3346
LeftHand  -0.071923 3.93663 4.33143
RightShoulder  0.563597 -1.29572 21.4328
RightArm  -91.3301 5.93051 22.2617
RightForeArm  21.6999 20.2361 -0.947173
RightHand  -0.341543 -3.01612 -16.3051
LeftUpLeg  -11.2008 1.95838 9.35544
LeftLeg  62.5666 -6.49728 -12.8066
LeftFoot  17.0253 5.72656 -22.8182
LeftToes  -1.2485e-010 1.20979e-011 -1.0929e-011
823
root  43.1597 38.9269 -36.4133 -42.7891 80.6941 -44.0464
RightUpLeg  -14.1843 0.0463401 9.0717
RightLeg  20.763 6.18552 3.05964
RightFoot  -7.15904 0.0276351 -2.08353
RightToes  2.96424e-010 1.2921e-014 -6.02303e-014
Spine  -4.11342 -5.43549 6.65131
Spine1  7.74751 -6.16266 4.75141
HEad  25.1177 -8.01666 -3.11919
LeftShoulder1  1.51928 -2.21157 -21.4211
LeftArm  -1.71632 -4.18429 -51.4771
LeftForeArm  32.1831 -0.887342 -12.3767
LeftHand  -0.0712862 3.98216 4.40605
RightShoulder  0.608763 -1.00183 19.7438
RightArm  -98.7505 7.06079 20.4648
RightForeArm  24.2545 21.1452 0.281264
RightHand  -0.301679 -3.31302 -16.3657
LeftUpLeg  -15.6637 1.74969 9.46311
LeftLeg  65.8858 -5.44401 -12.4846
LeftFoot  9.22516 3.13856 -17.4955
LeftToes  -1.2485e-010 1.20979e-011 -1.0929e-011
